<?xml version="1.0" encoding="utf-8"?>
<svg width="169" height="44" viewBox="0 0 169 44" fill="none" xmlns="http://www.w3.org/2000/svg" xmlns:bx="https://boxy-svg.com">
  <defs>
    <style bx:fonts="Poppins">@import url(https://fonts.googleapis.com/css2?family=Poppins%3Aital%2Cwght%400%2C100%3B0%2C200%3B0%2C300%3B0%2C400%3B0%2C500%3B0%2C600%3B0%2C700%3B0%2C800%3B0%2C900%3B1%2C100%3B1%2C200%3B1%2C300%3B1%2C400%3B1%2C500%3B1%2C600%3B1%2C700%3B1%2C800%3B1%2C900&amp;display=swap);</style>
  </defs>
  <path fill-rule="evenodd" clip-rule="evenodd" d="M44 22C44 34.1503 34.1503 44 22 44C9.84974 44 0 34.1503 0 22C0 9.84974 9.84974 0 22 0C34.1503 0 44 9.84974 44 22ZM16 18C16 20.7614 13.7614 23 11 23C8.23858 23 6 20.7614 6 18C6 15.2386 8.23858 13 11 13C13.7614 13 16 15.2386 16 18ZM15 36C17.7614 36 20 33.7614 20 31C20 28.2386 17.7614 26 15 26C12.2386 26 10 28.2386 10 31C10 33.7614 12.2386 36 15 36ZM34 31C34 33.7614 31.7614 36 29 36C26.2386 36 24 33.7614 24 31C24 28.2386 26.2386 26 29 26C31.7614 26 34 28.2386 34 31ZM33 23C35.7614 23 38 20.7614 38 18C38 15.2386 35.7614 13 33 13C30.2386 13 28 15.2386 28 18C28 20.7614 30.2386 23 33 23ZM27 10C27 12.7614 24.7614 15 22 15C19.2386 15 17 12.7614 17 10C17 7.23858 19.2386 5 22 5C24.7614 5 27 7.23858 27 10ZM22 24C23.1046 24 24 23.1046 24 22C24 20.8954 23.1046 20 22 20C20.8954 20 20 20.8954 20 22C20 23.1046 20.8954 24 22 24Z" style="fill: rgb(3, 182, 226);"/>
  <text style="fill: rgb(255, 255, 255); font-family: Poppins; font-size: 4.8583px; font-weight: 600; white-space: pre;" transform="matrix(6.196347, 0, 0, 6.207681, -302.489807, -101.202156)"><tspan x="56.508" y="21.613">Filma42</tspan><tspan x="56.508" dy="1em">​</tspan></text>
</svg>